<?xml version="1.0" standalone="no"?>
<!DOCTYPE svg PUBLIC "-//W3C//DTD SVG 20010904//EN"
 "http://www.w3.org/TR/2001/REC-SVG-20010904/DTD/svg10.dtd">
<svg version="1.0" xmlns="http://www.w3.org/2000/svg"
 width="3000.000000pt" height="3000.000000pt" viewBox="0 0 3000.000000 3000.000000"
 preserveAspectRatio="xMidYMid meet">
<metadata>
Created by potrace 1.14, written by Peter Selinger 2001-2017
</metadata>
<g transform="translate(0.000000,3000.000000) scale(0.100000,-0.100000)"
fill="#000000" stroke="none">
<path d="M6470 22872 c-89 -31 -159 -125 -184 -247 -4 -16 -8 -39 -11 -50 -10
-48 -37 -171 -40 -185 -2 -8 -18 -78 -35 -155 -17 -77 -38 -169 -47 -205 -8
-36 -17 -76 -20 -90 -2 -14 -25 -115 -49 -225 -25 -110 -48 -211 -50 -225 -3
-14 -11 -50 -19 -80 -8 -30 -17 -71 -20 -90 -3 -19 -10 -51 -15 -70 -5 -19
-11 -46 -13 -60 -2 -15 -12 -26 -23 -28 -26 -4 -467 -153 -479 -161 -5 -4 -32
-16 -60 -26 -27 -10 -68 -26 -90 -36 -22 -9 -74 -32 -115 -49 -41 -18 -165
-77 -276 -132 l-201 -100 -69 45 c-122 79 -200 128 -679 432 -258 164 -494
314 -524 333 -69 43 -124 60 -190 56 -110 -6 -90 13 -1007 -906 -939 -941
-888 -883 -888 -1012 1 -42 8 -76 23 -108 21 -44 22 -48 6 -78 -30 -59 -38
-133 -21 -200 8 -30 133 -236 366 -603 414 -650 404 -635 392 -650 -8 -10 -90
-183 -150 -317 -63 -140 -160 -401 -221 -595 l-41 -130 -108 -23 c-59 -13
-118 -26 -132 -29 -27 -5 -33 -7 -70 -16 -14 -4 -36 -9 -50 -11 -27 -4 -176
-38 -275 -61 -73 -18 -730 -164 -765 -171 -14 -3 -32 -7 -40 -9 -8 -2 -31 -7
-50 -10 -50 -9 -128 -54 -164 -96 -70 -83 -66 22 -66 -1500 0 -1518 -5 -1407
65 -1494 35 -43 111 -90 160 -99 17 -3 44 -8 60 -11 17 -4 68 -15 115 -26 154
-36 174 -41 260 -59 47 -10 168 -37 270 -60 102 -23 192 -43 200 -45 264 -57
568 -127 579 -133 7 -4 42 -95 77 -202 35 -107 68 -204 73 -215 5 -11 24 -58
42 -105 41 -108 124 -298 180 -415 24 -49 46 -98 51 -107 5 -12 -17 -55 -76
-145 -45 -71 -85 -135 -89 -143 -4 -8 -29 -48 -55 -88 -57 -88 -182 -284 -310
-487 -52 -82 -120 -188 -150 -235 -30 -47 -63 -107 -72 -134 -22 -61 -18 -139
10 -202 l20 -48 -21 -45 c-30 -63 -30 -158 0 -225 18 -41 169 -198 869 -898
937 -939 896 -903 1021 -901 87 1 103 9 451 233 41 26 131 83 200 126 69 43
130 82 135 87 12 10 624 395 647 408 12 6 68 -17 215 -90 166 -83 355 -168
523 -236 82 -33 234 -86 360 -125 74 -24 140 -48 146 -54 9 -9 36 -123 79
-326 2 -8 31 -139 65 -290 34 -151 71 -315 82 -365 11 -49 24 -106 28 -125 4
-19 18 -80 30 -135 66 -305 81 -348 146 -405 16 -14 47 -34 69 -45 38 -19 65
-20 576 -23 l537 -3 4 23 c6 36 3 5176 -3 5182 -3 3 -37 8 -75 11 -153 12
-359 47 -480 81 -28 8 -60 16 -70 18 -43 9 -216 71 -319 114 -345 145 -630
337 -906 612 -317 315 -539 671 -685 1095 -35 100 -98 344 -109 420 -8 58 -14
96 -21 130 -10 51 -13 317 -4 365 4 25 11 69 14 99 9 76 33 189 63 301 14 52
26 102 28 110 7 30 74 210 115 306 162 381 459 779 780 1045 331 275 741 484
1139 580 175 43 384 75 511 78 l25 1 0 2602 0 2603 -530 2 c-459 1 -536 -1
-575 -15z"/>
<path d="M8669 22505 c-3 -2 -52 -7 -109 -10 -58 -3 -116 -7 -130 -10 -25 -4
-64 -8 -170 -20 -62 -7 -75 -9 -182 -25 l-76 -12 0 -740 -1 -739 27 6 c15 3
39 8 55 10 15 3 39 7 55 10 143 26 264 46 311 51 31 3 70 8 86 10 91 12 258
19 475 19 313 0 392 -6 710 -52 29 -4 123 -22 260 -49 200 -40 544 -151 778
-251 94 -39 360 -169 423 -205 444 -256 848 -580 1161 -932 23 -27 53 -61 66
-75 71 -79 282 -360 342 -456 238 -376 381 -676 513 -1076 63 -191 142 -526
162 -689 4 -30 8 -57 10 -60 2 -3 6 -34 10 -70 3 -36 8 -81 10 -100 11 -99 19
-247 24 -435 1 -20 7 -20 714 -18 391 1 718 2 726 2 11 1 12 35 7 189 -4 103
-8 201 -10 217 -2 17 -7 71 -11 120 -3 50 -8 104 -10 120 -3 17 -7 53 -10 80
-3 28 -8 65 -11 83 -2 17 -6 49 -9 70 -14 102 -71 399 -85 447 -5 17 -12 44
-15 60 -11 58 -15 72 -56 216 -182 644 -467 1245 -851 1794 -84 120 -246 331
-318 415 -146 171 -208 237 -356 384 -163 163 -279 268 -449 407 -152 124
-443 333 -578 415 -27 16 -65 39 -85 52 -41 24 -72 43 -177 102 -101 58 -367
192 -455 230 -41 18 -93 40 -115 50 -159 72 -518 199 -690 245 -231 62 -320
84 -460 111 -11 2 -31 6 -45 9 -56 11 -208 37 -245 41 -22 3 -47 7 -55 9 -8 2
-42 7 -75 10 -33 3 -75 8 -93 11 -19 2 -66 7 -105 10 -40 3 -88 8 -107 11 -45
6 -776 14 -781 8z"/>
<path d="M8779 20216 c-2 -2 -42 -7 -89 -10 -47 -4 -96 -9 -110 -11 -99 -12
-135 -18 -210 -31 -47 -9 -96 -18 -110 -21 -14 -2 -43 -9 -65 -14 -22 -5 -51
-12 -65 -15 -14 -2 -34 -8 -45 -11 -11 -4 -22 -8 -25 -8 -3 -1 -17 -5 -32 -9
l-26 -8 0 -648 -1 -649 52 21 c181 72 346 124 447 143 8 1 33 6 55 10 22 4 49
9 60 11 208 38 598 37 800 -2 11 -2 34 -7 50 -10 243 -44 626 -193 804 -313
14 -10 55 -37 91 -61 533 -358 909 -940 1019 -1580 22 -125 32 -218 34 -322 2
-87 2 -88 27 -89 14 0 289 -1 612 -2 l587 -2 -4 130 c-4 122 -9 191 -20 275
-2 19 -7 57 -10 84 -42 351 -176 788 -344 1125 -288 575 -699 1043 -1229 1401
-72 50 -135 90 -138 90 -3 0 -18 8 -32 19 -93 65 -419 222 -602 288 -192 70
-503 153 -629 169 -20 2 -61 8 -91 13 -30 6 -84 13 -120 17 -36 4 -74 9 -85
11 -27 4 -552 13 -556 9z"/>
<path d="M8900 17529 c-128 -17 -220 -44 -325 -97 -175 -88 -340 -256 -423
-432 -33 -70 -68 -174 -77 -230 -10 -58 -22 -175 -19 -179 3 -3 1657 -5 1856
-2 l47 1 -5 43 c-2 23 -6 62 -9 87 -19 176 -116 376 -253 517 -143 149 -271
224 -466 273 -85 22 -238 31 -326 19z"/>
<path d="M20252 16069 c-12 -5 -26 -17 -30 -28 -4 -11 -7 -128 -6 -261 0 -274
-1 -270 80 -275 63 -4 154 -15 176 -21 19 -6 58 28 58 51 0 39 -41 56 -172 71
-10 1 -22 2 -28 3 -6 1 -10 79 -10 212 0 243 -7 270 -68 248z"/>
<path d="M19181 16016 c-46 -17 -89 -62 -101 -108 -28 -102 64 -208 167 -192
37 6 103 39 103 52 0 4 7 16 16 27 14 19 27 20 224 20 l210 1 0 -182 c0 -153
3 -185 16 -198 21 -21 24 -21 139 15 160 50 164 52 151 103 -9 36 -37 40 -121
17 -41 -12 -76 -21 -78 -21 -1 0 -2 62 -2 138 2 234 5 232 -310 232 -178 0
-225 3 -225 13 0 21 -62 75 -95 82 -16 4 -37 8 -45 10 -8 2 -30 -2 -49 -9z"/>
<path d="M21263 16015 c-45 -14 -59 -24 -88 -68 l-18 -28 -223 1 c-255 1 -273
-3 -293 -70 -6 -21 -11 -114 -11 -217 0 -206 -8 -187 105 -247 75 -41 143 -90
215 -154 25 -23 52 -40 61 -39 27 5 49 28 49 53 0 39 -131 151 -266 227 l-58
32 -1 156 0 155 214 -1 c174 0 215 -3 219 -14 7 -21 54 -65 83 -78 36 -16 107
-8 138 15 43 32 71 81 71 126 0 108 -95 181 -197 151z"/>
<path d="M8405 15957 c-103 -10 -250 -49 -327 -87 -185 -90 -316 -264 -346
-460 -9 -58 -9 -680 0 -740 10 -68 47 -169 83 -225 79 -125 248 -227 428 -259
15 -2 35 -7 45 -10 9 -2 37 -7 62 -10 25 -4 56 -8 70 -11 14 -2 48 -7 75 -10
28 -3 64 -7 80 -10 17 -3 48 -7 70 -10 22 -3 47 -7 55 -10 8 -2 38 -6 65 -9
117 -12 198 -27 226 -42 70 -36 70 -185 -1 -221 -19 -10 -156 -13 -598 -13
-638 0 -625 1 -657 -65 -13 -29 -15 -77 -15 -322 1 -318 3 -328 67 -358 47
-23 1438 -22 1553 1 41 8 86 17 100 20 84 15 241 99 316 168 95 86 166 218
189 351 11 60 13 598 3 690 -22 211 -120 364 -287 454 -52 27 -130 58 -170 66
-9 2 -37 8 -64 14 -47 11 -85 18 -142 25 -16 3 -86 12 -155 21 -134 18 -160
21 -230 30 -173 21 -199 27 -232 55 -31 26 -33 31 -33 94 0 58 3 69 28 93 l27
28 513 1 c456 1 516 3 545 18 59 31 61 44 63 365 1 268 -1 294 -18 324 -37 62
-17 61 -693 61 -338 1 -651 -3 -695 -7z"/>
<path d="M10426 15959 c-45 -7 -83 -41 -92 -83 -4 -17 -7 -157 -7 -311 0 -245
3 -285 17 -314 29 -55 58 -61 305 -61 l219 0 0 -675 c0 -371 -3 -675 -6 -676
-4 0 -106 -1 -227 -2 -187 -2 -225 -5 -252 -19 -52 -29 -56 -59 -56 -374 1
-242 3 -286 18 -313 33 -64 -7 -62 995 -59 l910 3 32 33 33 32 1 303 c2 328 0
339 -53 374 -24 16 -55 18 -244 19 -119 1 -221 4 -225 7 -9 5 -12 1333 -3
1341 3 3 104 6 224 6 250 2 264 5 290 75 12 32 14 94 12 330 -2 260 -4 293
-20 316 -37 55 -13 53 -958 54 -482 0 -893 -3 -913 -6z"/>
<path d="M13657 15963 c-1 -1 -40 -4 -87 -8 -179 -13 -296 -42 -428 -107 -217
-106 -341 -292 -369 -556 -4 -37 -7 -395 -7 -797 0 -552 3 -747 13 -800 40
-220 131 -368 286 -469 118 -76 236 -114 455 -145 36 -5 397 -10 803 -10 812
-1 780 -4 812 60 14 26 16 111 16 704 1 750 3 722 -67 751 -51 21 -734 20
-775 -2 -63 -32 -63 -32 -64 -410 l0 -344 -221 0 c-232 0 -269 6 -306 47 -47
52 -48 60 -48 620 0 375 4 539 12 566 6 21 25 52 42 68 57 55 77 57 594 58
522 1 526 2 557 61 15 28 17 72 16 332 l0 300 -25 33 c-15 20 -39 36 -58 41
-27 6 -1145 13 -1151 7z"/>
<path d="M15734 15957 c-45 -9 -60 -21 -81 -61 -15 -28 -16 -165 -16 -1376 0
-1210 2 -1349 16 -1383 21 -49 57 -64 165 -66 47 -1 88 -4 91 -6 5 -2 6 -298
2 -352 -1 -7 -11 -15 -23 -17 -227 -49 -367 -119 -510 -255 -134 -125 -230
-285 -274 -455 -9 -34 -18 -70 -21 -81 -12 -46 -10 -273 3 -342 39 -204 124
-364 273 -514 48 -47 113 -103 146 -124 110 -70 256 -130 369 -149 16 -3 31
-8 34 -11 6 -6 10 -809 4 -837 -4 -15 -92 -16 -1159 -16 l-1155 -1 -34 -23
c-60 -41 -62 -55 -62 -443 0 -192 -1 -360 -1 -372 -1 -17 -7 -23 -25 -23 -39
0 -193 -48 -259 -81 -278 -140 -467 -378 -533 -674 -27 -118 -26 -296 1 -429
33 -160 147 -358 276 -481 196 -185 413 -273 679 -272 221 0 413 63 585 193
175 131 297 308 356 517 28 102 33 146 32 282 -2 367 -212 696 -548 861 -82
40 -222 84 -267 84 -10 0 -19 3 -19 8 -1 4 -2 136 -3 295 l-2 287 216 0 c1518
2 1914 0 1919 -9 7 -10 7 -569 0 -575 -2 -2 -22 -6 -44 -9 -64 -9 -174 -46
-250 -84 -327 -163 -537 -495 -544 -859 -7 -380 207 -726 556 -898 180 -89
392 -116 608 -76 113 21 154 34 246 80 98 50 177 107 255 184 196 194 297 447
289 726 -3 99 -24 224 -45 262 -6 10 -10 24 -10 31 0 17 -60 141 -99 202 -52
83 -161 199 -246 260 -115 83 -282 157 -388 172 -23 3 -44 7 -47 10 -3 2 -5
135 -5 294 l0 289 212 0 c277 1 1761 1 1856 0 l72 0 -1 -285 c0 -164 -4 -289
-10 -294 -5 -5 -25 -12 -44 -15 -63 -9 -174 -48 -251 -87 -148 -74 -281 -192
-376 -334 -47 -69 -114 -213 -127 -270 -3 -16 -9 -41 -12 -55 -30 -130 -27
-322 5 -448 133 -512 629 -824 1145 -721 248 50 449 181 597 387 171 239 226
529 154 815 -90 356 -414 658 -765 714 -19 3 -37 7 -40 10 -3 3 -6 165 -6 361
-1 197 -2 369 -3 384 -1 38 -55 96 -95 104 -18 3 -545 6 -1172 7 l-1139 2 0
427 0 427 40 7 c116 19 270 82 375 154 194 133 352 360 399 573 20 87 22 104
25 203 10 268 -89 519 -276 706 -88 88 -104 101 -189 154 -72 45 -193 95 -279
114 -104 23 -95 3 -95 208 l0 181 132 3 c149 3 177 14 198 78 8 25 11 228 11
707 -1 370 2 672 6 670 3 -1 129 -150 278 -332 307 -373 289 -351 352 -425
l47 -56 3 -284 c3 -313 4 -315 65 -344 29 -14 83 -16 381 -16 330 0 349 1 380
20 18 11 39 34 46 52 11 25 13 289 12 1387 -1 1306 -2 1357 -20 1384 -32 47
-71 52 -437 51 -296 -1 -338 -3 -367 -18 -61 -32 -62 -37 -62 -533 l-1 -448
-26 30 c-14 17 -49 56 -77 89 -28 32 -56 64 -61 70 -6 6 -71 81 -146 166 -74
85 -146 169 -161 185 -14 17 -79 91 -143 165 -216 248 -239 269 -325 287 -40
8 -496 9 -536 0z"/>
<path d="M22354 15962 c-42 -7 -71 -24 -89 -55 -19 -31 -19 -71 -20 -1372 -1
-939 2 -1352 10 -1380 7 -27 22 -47 45 -63 l34 -23 815 4 c449 2 834 7 856 11
265 47 403 109 526 238 103 106 163 251 184 443 8 66 7 1416 0 1501 -29 322
-191 534 -480 629 -76 25 -144 41 -210 50 -16 2 -57 7 -90 11 -57 7 -1539 12
-1581 6z m1378 -786 c21 -10 48 -35 60 -55 l23 -36 0 -570 0 -570 -23 -36
c-45 -74 -44 -74 -358 -77 l-282 -3 0 678 c0 373 2 681 4 684 2 4 124 6 271 5
237 -1 272 -4 305 -20z"/>
<path d="M25333 15959 c-46 -6 -80 -30 -95 -69 -6 -16 -10 -529 -10 -1376 0
-1243 1 -1353 17 -1383 32 -64 -13 -61 1052 -60 723 0 977 3 1002 12 22 8 40
24 52 47 17 31 19 61 19 316 0 170 -4 293 -10 310 -6 16 -23 38 -38 49 -26 19
-45 20 -613 23 l-586 3 0 169 c0 94 3 170 6 171 3 0 193 1 421 2 299 2 421 6
436 14 12 7 30 25 40 40 17 26 19 51 20 294 1 294 -3 321 -57 353 -27 16 -67
18 -447 19 l-417 2 -1 155 -1 155 581 0 c631 1 610 -1 646 58 19 30 20 52 20
322 0 272 -1 292 -20 323 -11 18 -32 38 -48 44 -28 11 -1885 19 -1969 7z"/>
<path d="M28537 15964 c-1 -1 -36 -5 -78 -8 -101 -8 -256 -48 -332 -87 -103
-52 -160 -99 -239 -197 -41 -51 -91 -176 -105 -261 -10 -59 -10 -670 -1 -736
30 -203 136 -344 326 -430 58 -27 175 -61 237 -70 23 -3 52 -8 65 -10 40 -8
71 -13 135 -20 32 -4 66 -8 75 -10 16 -3 95 -14 150 -21 19 -2 46 -6 60 -9 14
-3 45 -7 70 -10 86 -10 148 -26 163 -43 39 -43 38 -156 -2 -195 -22 -22 -22
-22 -619 -27 -577 -5 -598 -6 -624 -25 -44 -33 -49 -72 -48 -367 1 -228 4
-279 17 -306 31 -64 11 -62 797 -61 753 1 803 3 951 49 234 73 399 243 450
464 14 59 16 127 13 440 -4 371 -4 371 -30 444 -86 239 -275 359 -635 406 -24
4 -62 8 -85 11 -60 8 -190 27 -208 30 -8 1 -46 6 -83 10 -37 3 -76 8 -87 10
-10 2 -40 7 -67 10 -26 4 -58 13 -70 21 -60 38 -71 151 -19 202 l26 27 498 1
c273 0 513 4 533 8 39 7 72 37 84 75 10 32 10 569 0 601 -11 37 -43 68 -79 76
-24 6 -1233 13 -1239 8z"/>
<path d="M19585 15368 c-65 -52 -161 -155 -203 -216 l-39 -57 -139 -3 -139 -2
-17 30 c-24 43 -74 70 -130 70 -189 0 -209 -277 -21 -305 56 -8 117 17 144 61
11 19 24 35 27 35 4 1 77 3 162 4 85 2 158 3 162 4 3 0 28 34 54 74 26 39 94
118 152 174 102 101 103 102 90 130 -19 40 -54 41 -103 1z"/>
<path d="M20140 15285 c-285 -48 -516 -247 -612 -528 -29 -84 -31 -104 -32
-222 -1 -166 12 -230 74 -359 98 -206 306 -370 535 -422 65 -14 259 -14 325 1
154 36 283 107 390 215 293 295 301 773 18 1075 -73 79 -130 122 -224 169
-143 71 -315 97 -474 71z m246 -173 c81 -41 143 -143 142 -232 0 -78 2 -110
10 -109 49 8 125 -50 138 -104 14 -59 11 -518 -3 -562 -17 -50 -47 -81 -91
-96 -48 -16 -585 -15 -627 1 -44 17 -84 59 -95 100 -5 19 -9 148 -8 285 0 217
2 255 18 291 18 42 62 77 111 89 26 6 27 9 31 98 3 78 8 98 31 134 42 66 81
98 157 127 32 12 146 -1 186 -22z"/>
<path d="M20217 15025 c-21 -7 -47 -21 -57 -30 -30 -27 -50 -94 -47 -159 l2
-59 125 1 c69 0 139 0 156 1 l30 1 -1 68 c-1 39 -9 82 -19 102 -31 67 -117
101 -189 75z"/>
<path d="M19990 14668 c-10 -4 -21 -12 -26 -19 -11 -18 -12 -490 -1 -516 6
-12 22 -24 36 -27 14 -3 143 -5 286 -5 222 1 263 3 278 16 15 15 17 41 17 268
0 195 -3 255 -14 270 -12 17 -33 18 -285 19 -150 1 -280 -2 -291 -6z m348
-117 c103 -54 114 -200 18 -263 -18 -12 -38 -34 -43 -48 -6 -15 -19 -29 -31
-32 -26 -7 -62 17 -62 43 0 10 -6 19 -14 19 -20 0 -86 77 -88 103 0 12 -2 33
-3 47 -1 29 26 90 51 111 50 41 116 49 172 20z"/>
<path d="M20237 14450 c-33 -26 -26 -64 15 -81 26 -11 32 -10 51 9 17 18 19
26 12 48 -14 38 -47 48 -78 24z"/>
<path d="M21544 15171 c-17 -10 -41 -33 -53 -50 l-22 -31 -158 0 c-215 0 -221
-6 -154 -146 57 -121 95 -269 96 -379 0 -58 13 -92 36 -97 14 -3 469 -2 496 1
39 5 54 52 26 80 -20 20 -33 21 -236 21 -118 0 -215 1 -216 3 0 1 -2 22 -5 47
-10 93 -37 207 -65 279 -15 41 -26 77 -24 81 2 4 49 6 105 5 101 -1 101 -1
119 -31 61 -100 213 -92 271 15 19 36 16 104 -6 142 -44 75 -141 102 -210 60z"/>
<path d="M19250 14881 c-21 -18 -56 -152 -66 -248 l-7 -63 -217 0 c-197 0
-218 -2 -233 -18 -22 -24 -21 -48 1 -70 15 -15 42 -17 271 -17 237 1 254 2
267 20 8 10 14 30 15 44 3 94 9 136 40 273 12 51 11 59 -4 76 -21 23 -43 24
-67 3z"/>
<path d="M19217 14349 c-16 -9 -18 -19 -13 -59 5 -40 41 -154 71 -222 7 -17
-2 -18 -101 -18 l-109 0 -17 29 c-9 16 -28 37 -42 46 -126 83 -289 -44 -231
-180 28 -68 63 -94 135 -101 33 -2 120 29 120 44 0 4 9 18 20 32 19 25 20 25
179 26 169 1 191 6 191 48 0 11 -8 35 -18 51 -26 44 -68 149 -92 231 -23 82
-46 100 -93 73z"/>
<path d="M21246 14338 c-9 -12 -16 -30 -16 -38 0 -34 -32 -122 -83 -229 -38
-79 -37 -104 4 -119 11 -4 87 -7 170 -6 131 2 151 0 157 -14 21 -56 102 -98
167 -86 167 30 170 266 3 303 -51 12 -106 -10 -149 -58 l-37 -41 -101 0 c-55
0 -101 3 -101 7 0 3 11 34 24 67 14 34 32 92 42 129 16 64 16 69 -1 87 -24 26
-60 25 -79 -2z"/>
<path d="M19442 13878 c-7 -7 -12 -24 -12 -39 0 -38 150 -177 274 -253 l96
-60 0 -153 0 -153 -212 0 -213 1 -20 32 c-28 45 -96 76 -147 67 -72 -13 -124
-67 -132 -136 -11 -85 67 -173 153 -174 42 0 112 40 131 74 7 14 18 27 24 27
6 1 106 2 221 3 223 1 258 8 285 49 17 27 22 407 5 430 -5 7 -39 28 -75 46
-91 46 -174 107 -250 185 -66 67 -101 81 -128 54z"/>
<path d="M20954 13809 c-43 -46 -159 -130 -234 -168 -36 -18 -71 -41 -78 -50
-9 -12 -12 -66 -12 -213 l2 -198 28 -29 c16 -16 39 -30 52 -33 13 -2 118 -4
233 -3 l210 0 27 -37 c33 -44 54 -56 110 -64 56 -7 123 27 150 76 27 49 20
127 -15 173 -62 82 -199 73 -252 -15 l-16 -28 -212 0 -212 0 1 152 c1 84 2
156 3 159 1 3 18 13 38 23 75 36 163 99 240 172 48 46 57 86 24 104 -33 17
-56 11 -87 -21z"/>
<path d="M20028 13540 c-21 -13 -24 -63 -5 -78 6 -6 28 -13 47 -17 19 -3 44
-8 55 -10 11 -2 36 -4 55 -4 l36 -1 0 -221 c0 -205 2 -223 19 -235 25 -18 50
-18 69 2 14 13 16 49 16 233 l0 218 71 7 c90 9 116 19 131 51 9 21 8 28 -8 46
-17 19 -25 20 -79 13 -74 -10 -273 -10 -340 -1 -31 5 -57 3 -67 -3z"/>
</g>
</svg>
